<svg width="491" height="187" viewBox="0 0 491 187" fill="none" xmlns="http://www.w3.org/2000/svg">
<path d="M143.547 149H120.109L74.4844 74.1562V149H51.0469V35.25H74.4844L120.188 110.25V35.25H143.547V149ZM186.438 64.4688V153.609C186.438 162.932 183.964 170.172 179.016 175.328C174.068 180.536 166.932 183.141 157.609 183.141C153.703 183.141 149.979 182.698 146.438 181.812V163.922C149.146 164.391 151.516 164.625 153.547 164.625C160.37 164.625 163.781 161.005 163.781 153.766V64.4688H186.438ZM161.984 42.5938C161.984 39.2083 163.104 36.4219 165.344 34.2344C167.635 32.0469 170.734 30.9531 174.641 30.9531C178.547 30.9531 181.62 32.0469 183.859 34.2344C186.151 36.4219 187.297 39.2083 187.297 42.5938C187.297 46.0312 186.125 48.8438 183.781 51.0312C181.49 53.2188 178.443 54.3125 174.641 54.3125C170.839 54.3125 167.766 53.2188 165.422 51.0312C163.13 48.8438 161.984 46.0312 161.984 42.5938ZM253.078 149C252.036 146.969 251.281 144.443 250.812 141.422C245.344 147.516 238.234 150.562 229.484 150.562C221.203 150.562 214.328 148.167 208.859 143.375C203.443 138.583 200.734 132.542 200.734 125.25C200.734 116.292 204.042 109.417 210.656 104.625C217.323 99.8333 226.932 97.4115 239.484 97.3594H249.875V92.5156C249.875 88.6094 248.859 85.4844 246.828 83.1406C244.849 80.7969 241.698 79.625 237.375 79.625C233.573 79.625 230.578 80.5365 228.391 82.3594C226.255 84.1823 225.188 86.6823 225.188 89.8594H202.609C202.609 84.9635 204.12 80.4323 207.141 76.2656C210.161 72.099 214.432 68.8438 219.953 66.5C225.474 64.1042 231.672 62.9062 238.547 62.9062C248.964 62.9062 257.219 65.5365 263.312 70.7969C269.458 76.0052 272.531 83.349 272.531 92.8281V129.469C272.583 137.49 273.703 143.557 275.891 147.672V149H253.078ZM234.406 133.297C237.74 133.297 240.812 132.568 243.625 131.109C246.438 129.599 248.521 127.594 249.875 125.094V110.562H241.438C230.135 110.562 224.12 114.469 223.391 122.281L223.312 123.609C223.312 126.422 224.302 128.74 226.281 130.562C228.26 132.385 230.969 133.297 234.406 133.297ZM325.031 132.359C329.198 132.359 332.583 131.214 335.188 128.922C337.792 126.63 339.146 123.583 339.25 119.781H360.422C360.37 125.51 358.807 130.771 355.734 135.562C352.661 140.302 348.443 144 343.078 146.656C337.766 149.26 331.88 150.562 325.422 150.562C313.339 150.562 303.807 146.734 296.828 139.078C289.849 131.37 286.359 120.745 286.359 107.203V105.719C286.359 92.6979 289.823 82.3073 296.75 74.5469C303.677 66.7865 313.182 62.9062 325.266 62.9062C335.839 62.9062 344.302 65.9271 350.656 71.9688C357.062 77.9583 360.318 85.9531 360.422 95.9531H339.25C339.146 91.5781 337.792 88.0365 335.188 85.3281C332.583 82.5677 329.146 81.1875 324.875 81.1875C319.615 81.1875 315.63 83.1146 312.922 86.9688C310.266 90.7708 308.938 96.9688 308.938 105.562V107.906C308.938 116.604 310.266 122.854 312.922 126.656C315.578 130.458 319.615 132.359 325.031 132.359ZM404.016 115.094L395.891 123.219V149H373.312V29H395.891V95.4844L400.266 89.8594L421.906 64.4688H449.016L418.469 99.7031L451.672 149H425.734L404.016 115.094Z" fill="#133B5C" fill-opacity="0.2"/>
<path d="M140.677 116.332H123.726L120.503 126H110.223L127.69 79.0781H136.649L154.212 126H143.932L140.677 116.332ZM126.336 108.501H138.067L132.169 90.9375L126.336 108.501ZM189.404 108.888C189.404 114.474 188.211 118.835 185.827 121.972C183.442 125.087 180.112 126.645 175.836 126.645C172.055 126.645 169.037 125.194 166.781 122.294L166.362 126H157.983V76.5H167.296V94.2568C169.445 91.7432 172.27 90.4863 175.772 90.4863C180.026 90.4863 183.356 92.0547 185.762 95.1914C188.19 98.3066 189.404 102.7 189.404 108.372V108.888ZM180.09 108.211C180.09 104.688 179.532 102.12 178.414 100.509C177.297 98.876 175.632 98.0596 173.419 98.0596C170.454 98.0596 168.413 99.2734 167.296 101.701V115.462C168.435 117.911 170.497 119.136 173.484 119.136C176.492 119.136 178.468 117.653 179.413 114.688C179.865 113.271 180.09 111.111 180.09 108.211ZM193.722 108.243C193.722 104.784 194.388 101.701 195.72 98.9941C197.052 96.2871 198.964 94.1924 201.456 92.71C203.97 91.2275 206.881 90.4863 210.19 90.4863C214.895 90.4863 218.73 91.9258 221.695 94.8047C224.681 97.6836 226.346 101.594 226.69 106.535L226.754 108.92C226.754 114.27 225.261 118.566 222.275 121.811C219.288 125.033 215.282 126.645 210.254 126.645C205.227 126.645 201.209 125.033 198.202 121.811C195.215 118.588 193.722 114.205 193.722 108.662V108.243ZM203.036 108.92C203.036 112.229 203.659 114.764 204.905 116.525C206.151 118.266 207.934 119.136 210.254 119.136C212.51 119.136 214.272 118.276 215.539 116.558C216.807 114.817 217.441 112.046 217.441 108.243C217.441 104.999 216.807 102.485 215.539 100.702C214.272 98.9189 212.489 98.0273 210.19 98.0273C207.913 98.0273 206.151 98.9189 204.905 100.702C203.659 102.464 203.036 105.203 203.036 108.92ZM253.373 122.455C251.075 125.248 247.895 126.645 243.834 126.645C240.096 126.645 237.239 125.57 235.262 123.422C233.307 121.273 232.308 118.126 232.265 113.979V91.1309H241.579V113.657C241.579 117.288 243.233 119.104 246.541 119.104C249.7 119.104 251.87 118.008 253.051 115.816V91.1309H262.397V126H253.631L253.373 122.455ZM280.573 82.5586V91.1309H286.535V97.9629H280.573V115.365C280.573 116.654 280.82 117.578 281.314 118.137C281.808 118.695 282.753 118.975 284.15 118.975C285.181 118.975 286.094 118.899 286.889 118.749V125.807C285.063 126.365 283.183 126.645 281.249 126.645C274.718 126.645 271.388 123.347 271.259 116.751V97.9629H266.167V91.1309H271.259V82.5586H280.573ZM344.285 79.0781V109.983C344.285 115.118 342.673 119.179 339.451 122.165C336.249 125.151 331.867 126.645 326.302 126.645C320.824 126.645 316.473 125.194 313.25 122.294C310.028 119.394 308.384 115.408 308.32 110.338V79.0781H317.988V110.048C317.988 113.12 318.718 115.365 320.179 116.783C321.662 118.18 323.703 118.878 326.302 118.878C331.738 118.878 334.498 116.021 334.584 110.306V79.0781H344.285ZM370.485 116.364C370.485 115.226 369.915 114.334 368.777 113.689C367.66 113.023 365.855 112.433 363.363 111.917C355.07 110.177 350.923 106.653 350.923 101.347C350.923 98.2529 352.202 95.6748 354.758 93.6123C357.336 91.5283 360.699 90.4863 364.845 90.4863C369.271 90.4863 372.805 91.5283 375.448 93.6123C378.112 95.6963 379.444 98.4033 379.444 101.733H370.13C370.13 100.401 369.701 99.3057 368.841 98.4463C367.982 97.5654 366.639 97.125 364.813 97.125C363.245 97.125 362.031 97.4795 361.171 98.1885C360.312 98.8975 359.882 99.7998 359.882 100.896C359.882 101.927 360.366 102.765 361.332 103.409C362.321 104.032 363.975 104.58 366.295 105.053C368.616 105.504 370.571 106.02 372.161 106.6C377.08 108.404 379.54 111.53 379.54 115.978C379.54 119.157 378.176 121.735 375.448 123.712C372.719 125.667 369.196 126.645 364.877 126.645C361.955 126.645 359.356 126.129 357.079 125.098C354.823 124.045 353.05 122.616 351.761 120.812C350.472 118.985 349.828 117.02 349.828 114.914H358.658C358.744 116.568 359.356 117.836 360.495 118.717C361.633 119.598 363.159 120.038 365.071 120.038C366.854 120.038 368.197 119.705 369.099 119.039C370.023 118.352 370.485 117.46 370.485 116.364Z" fill="#FCDAB7"/>
</svg>
