<svg width="378" height="165" viewBox="0 0 378 165" fill="none" xmlns="http://www.w3.org/2000/svg">
<path d="M97.2422 134H76.1484L35.0859 66.6406V134H13.9922V31.625H35.0859L76.2188 99.125V31.625H97.2422V134ZM135.844 57.9219V138.148C135.844 146.539 133.617 153.055 129.164 157.695C124.711 162.383 118.289 164.727 109.898 164.727C106.383 164.727 103.031 164.328 99.8438 163.531V147.43C102.281 147.852 104.414 148.062 106.242 148.062C112.383 148.062 115.453 144.805 115.453 138.289V57.9219H135.844ZM113.836 38.2344C113.836 35.1875 114.844 32.6797 116.859 30.7109C118.922 28.7422 121.711 27.7578 125.227 27.7578C128.742 27.7578 131.508 28.7422 133.523 30.7109C135.586 32.6797 136.617 35.1875 136.617 38.2344C136.617 41.3281 135.562 43.8594 133.453 45.8281C131.391 47.7969 128.648 48.7812 125.227 48.7812C121.805 48.7812 119.039 47.7969 116.93 45.8281C114.867 43.8594 113.836 41.3281 113.836 38.2344ZM195.82 134C194.883 132.172 194.203 129.898 193.781 127.18C188.859 132.664 182.461 135.406 174.586 135.406C167.133 135.406 160.945 133.25 156.023 128.938C151.148 124.625 148.711 119.188 148.711 112.625C148.711 104.562 151.688 98.375 157.641 94.0625C163.641 89.75 172.289 87.5703 183.586 87.5234H192.938V83.1641C192.938 79.6484 192.023 76.8359 190.195 74.7266C188.414 72.6172 185.578 71.5625 181.688 71.5625C178.266 71.5625 175.57 72.3828 173.602 74.0234C171.68 75.6641 170.719 77.9141 170.719 80.7734H150.398C150.398 76.3672 151.758 72.2891 154.477 68.5391C157.195 64.7891 161.039 61.8594 166.008 59.75C170.977 57.5937 176.555 56.5156 182.742 56.5156C192.117 56.5156 199.547 58.8828 205.031 63.6172C210.562 68.3047 213.328 74.9141 213.328 83.4453V116.422C213.375 123.641 214.383 129.102 216.352 132.805V134H195.82ZM179.016 119.867C182.016 119.867 184.781 119.211 187.312 117.898C189.844 116.539 191.719 114.734 192.938 112.484V99.4062H185.344C175.172 99.4062 169.758 102.922 169.102 109.953L169.031 111.148C169.031 113.68 169.922 115.766 171.703 117.406C173.484 119.047 175.922 119.867 179.016 119.867ZM260.578 119.023C264.328 119.023 267.375 117.992 269.719 115.93C272.062 113.867 273.281 111.125 273.375 107.703H292.43C292.383 112.859 290.977 117.594 288.211 121.906C285.445 126.172 281.648 129.5 276.82 131.891C272.039 134.234 266.742 135.406 260.93 135.406C250.055 135.406 241.477 131.961 235.195 125.07C228.914 118.133 225.773 108.57 225.773 96.3828V95.0469C225.773 83.3281 228.891 73.9766 235.125 66.9922C241.359 60.0078 249.914 56.5156 260.789 56.5156C270.305 56.5156 277.922 59.2344 283.641 64.6719C289.406 70.0625 292.336 77.2578 292.43 86.2578H273.375C273.281 82.3203 272.062 79.1328 269.719 76.6953C267.375 74.2109 264.281 72.9688 260.438 72.9688C255.703 72.9688 252.117 74.7031 249.68 78.1719C247.289 81.5938 246.094 87.1719 246.094 94.9062V97.0156C246.094 104.844 247.289 110.469 249.68 113.891C252.07 117.312 255.703 119.023 260.578 119.023ZM331.664 103.484L324.352 110.797V134H304.031V26H324.352V85.8359L328.289 80.7734L347.766 57.9219H372.164L344.672 89.6328L374.555 134H351.211L331.664 103.484Z" fill="#BABABA" fill-opacity="0.4"/>
<path d="M97.2578 106.211H81.8477L78.918 115H69.5723L85.4512 72.3438H93.5957L109.562 115H100.217L97.2578 106.211ZM84.2207 99.0918H94.8848L89.5234 83.125L84.2207 99.0918ZM141.555 99.4434C141.555 104.521 140.471 108.486 138.303 111.338C136.135 114.17 133.107 115.586 129.221 115.586C125.783 115.586 123.039 114.268 120.988 111.631L120.607 115H112.99V70H121.457V86.1426C123.41 83.8574 125.979 82.7148 129.162 82.7148C133.029 82.7148 136.057 84.1406 138.244 86.9922C140.451 89.8242 141.555 93.8184 141.555 98.9746V99.4434ZM133.088 98.8281C133.088 95.625 132.58 93.291 131.564 91.8262C130.549 90.3418 129.035 89.5996 127.023 89.5996C124.328 89.5996 122.473 90.7031 121.457 92.9102V105.42C122.492 107.646 124.367 108.76 127.082 108.76C129.816 108.76 131.613 107.412 132.473 104.717C132.883 103.428 133.088 101.465 133.088 98.8281ZM145.48 98.8574C145.48 95.7129 146.086 92.9102 147.297 90.4492C148.508 87.9883 150.246 86.084 152.512 84.7363C154.797 83.3887 157.443 82.7148 160.451 82.7148C164.729 82.7148 168.215 84.0234 170.91 86.6406C173.625 89.2578 175.139 92.8125 175.451 97.3047L175.51 99.4727C175.51 104.336 174.152 108.242 171.438 111.191C168.723 114.121 165.08 115.586 160.51 115.586C155.939 115.586 152.287 114.121 149.553 111.191C146.838 108.262 145.48 104.277 145.48 99.2383V98.8574ZM153.947 99.4727C153.947 102.48 154.514 104.785 155.646 106.387C156.779 107.969 158.4 108.76 160.51 108.76C162.561 108.76 164.162 107.979 165.314 106.416C166.467 104.834 167.043 102.314 167.043 98.8574C167.043 95.9082 166.467 93.623 165.314 92.002C164.162 90.3809 162.541 89.5703 160.451 89.5703C158.381 89.5703 156.779 90.3809 155.646 92.002C154.514 93.6035 153.947 96.0938 153.947 99.4727ZM199.709 111.777C197.619 114.316 194.729 115.586 191.037 115.586C187.639 115.586 185.041 114.609 183.244 112.656C181.467 110.703 180.559 107.842 180.52 104.072V83.3008H188.986V103.779C188.986 107.08 190.49 108.73 193.498 108.73C196.369 108.73 198.342 107.734 199.416 105.742V83.3008H207.912V115H199.943L199.709 111.777ZM224.436 75.5078V83.3008H229.855V89.5117H224.436V105.332C224.436 106.504 224.66 107.344 225.109 107.852C225.559 108.359 226.418 108.613 227.688 108.613C228.625 108.613 229.455 108.545 230.178 108.408V114.824C228.518 115.332 226.809 115.586 225.051 115.586C219.113 115.586 216.086 112.588 215.969 106.592V89.5117H211.34V83.3008H215.969V75.5078H224.436ZM282.355 72.3438V100.439C282.355 105.107 280.891 108.799 277.961 111.514C275.051 114.229 271.066 115.586 266.008 115.586C261.027 115.586 257.072 114.268 254.143 111.631C251.213 108.994 249.719 105.371 249.66 100.762V72.3438H258.449V100.498C258.449 103.291 259.113 105.332 260.441 106.621C261.789 107.891 263.645 108.525 266.008 108.525C270.949 108.525 273.459 105.928 273.537 100.732V72.3438H282.355ZM306.174 106.24C306.174 105.205 305.656 104.395 304.621 103.809C303.605 103.203 301.965 102.666 299.699 102.197C292.16 100.615 288.391 97.4121 288.391 92.5879C288.391 89.7754 289.553 87.4316 291.877 85.5566C294.221 83.6621 297.277 82.7148 301.047 82.7148C305.07 82.7148 308.283 83.6621 310.686 85.5566C313.107 87.4512 314.318 89.9121 314.318 92.9395H305.852C305.852 91.7285 305.461 90.7324 304.68 89.9512C303.898 89.1504 302.678 88.75 301.018 88.75C299.592 88.75 298.488 89.0723 297.707 89.7168C296.926 90.3613 296.535 91.1816 296.535 92.1777C296.535 93.1152 296.975 93.877 297.854 94.4629C298.752 95.0293 300.256 95.5273 302.365 95.957C304.475 96.3672 306.252 96.8359 307.697 97.3633C312.17 99.0039 314.406 101.846 314.406 105.889C314.406 108.779 313.166 111.123 310.686 112.92C308.205 114.697 305.002 115.586 301.076 115.586C298.42 115.586 296.057 115.117 293.986 114.18C291.936 113.223 290.324 111.924 289.152 110.283C287.98 108.623 287.395 106.836 287.395 104.922H295.422C295.5 106.426 296.057 107.578 297.092 108.379C298.127 109.18 299.514 109.58 301.252 109.58C302.873 109.58 304.094 109.277 304.914 108.672C305.754 108.047 306.174 107.236 306.174 106.24Z" fill="black"/>
</svg>
