<svg width="491" height="187" viewBox="0 0 491 187" fill="none" xmlns="http://www.w3.org/2000/svg">
<path d="M143.547 149H120.109L74.4844 74.1562V149H51.0469V35.25H74.4844L120.188 110.25V35.25H143.547V149ZM186.438 64.4688V153.609C186.438 162.932 183.964 170.172 179.016 175.328C174.068 180.536 166.932 183.141 157.609 183.141C153.703 183.141 149.979 182.698 146.438 181.812V163.922C149.146 164.391 151.516 164.625 153.547 164.625C160.37 164.625 163.781 161.005 163.781 153.766V64.4688H186.438ZM161.984 42.5938C161.984 39.2083 163.104 36.4219 165.344 34.2344C167.635 32.0469 170.734 30.9531 174.641 30.9531C178.547 30.9531 181.62 32.0469 183.859 34.2344C186.151 36.4219 187.297 39.2083 187.297 42.5938C187.297 46.0312 186.125 48.8438 183.781 51.0312C181.49 53.2188 178.443 54.3125 174.641 54.3125C170.839 54.3125 167.766 53.2188 165.422 51.0312C163.13 48.8438 161.984 46.0312 161.984 42.5938ZM253.078 149C252.036 146.969 251.281 144.443 250.812 141.422C245.344 147.516 238.234 150.562 229.484 150.562C221.203 150.562 214.328 148.167 208.859 143.375C203.443 138.583 200.734 132.542 200.734 125.25C200.734 116.292 204.042 109.417 210.656 104.625C217.323 99.8333 226.932 97.4115 239.484 97.3594H249.875V92.5156C249.875 88.6094 248.859 85.4844 246.828 83.1406C244.849 80.7969 241.698 79.625 237.375 79.625C233.573 79.625 230.578 80.5365 228.391 82.3594C226.255 84.1823 225.188 86.6823 225.188 89.8594H202.609C202.609 84.9635 204.12 80.4323 207.141 76.2656C210.161 72.099 214.432 68.8438 219.953 66.5C225.474 64.1042 231.672 62.9062 238.547 62.9062C248.964 62.9062 257.219 65.5365 263.312 70.7969C269.458 76.0052 272.531 83.349 272.531 92.8281V129.469C272.583 137.49 273.703 143.557 275.891 147.672V149H253.078ZM234.406 133.297C237.74 133.297 240.812 132.568 243.625 131.109C246.438 129.599 248.521 127.594 249.875 125.094V110.562H241.438C230.135 110.562 224.12 114.469 223.391 122.281L223.312 123.609C223.312 126.422 224.302 128.74 226.281 130.562C228.26 132.385 230.969 133.297 234.406 133.297ZM325.031 132.359C329.198 132.359 332.583 131.214 335.188 128.922C337.792 126.63 339.146 123.583 339.25 119.781H360.422C360.37 125.51 358.807 130.771 355.734 135.562C352.661 140.302 348.443 144 343.078 146.656C337.766 149.26 331.88 150.562 325.422 150.562C313.339 150.562 303.807 146.734 296.828 139.078C289.849 131.37 286.359 120.745 286.359 107.203V105.719C286.359 92.6979 289.823 82.3073 296.75 74.5469C303.677 66.7865 313.182 62.9062 325.266 62.9062C335.839 62.9062 344.302 65.9271 350.656 71.9688C357.062 77.9583 360.318 85.9531 360.422 95.9531H339.25C339.146 91.5781 337.792 88.0365 335.188 85.3281C332.583 82.5677 329.146 81.1875 324.875 81.1875C319.615 81.1875 315.63 83.1146 312.922 86.9688C310.266 90.7708 308.938 96.9688 308.938 105.562V107.906C308.938 116.604 310.266 122.854 312.922 126.656C315.578 130.458 319.615 132.359 325.031 132.359ZM404.016 115.094L395.891 123.219V149H373.312V29H395.891V95.4844L400.266 89.8594L421.906 64.4688H449.016L418.469 99.7031L451.672 149H425.734L404.016 115.094Z" fill="#133B5C" fill-opacity="0.2"/>
<path d="M204.26 120.07C202.52 122.154 200.06 123.776 196.88 124.937C193.701 126.075 190.177 126.645 186.31 126.645C182.249 126.645 178.683 125.764 175.611 124.002C172.56 122.219 170.197 119.641 168.521 116.268C166.867 112.895 166.018 108.931 165.975 104.376V101.186C165.975 96.502 166.759 92.4521 168.328 89.0361C169.917 85.5986 172.195 82.9775 175.16 81.1729C178.146 79.3467 181.637 78.4336 185.633 78.4336C191.198 78.4336 195.548 79.7656 198.685 82.4297C201.822 85.0723 203.68 88.9287 204.26 93.999H194.85C194.42 91.3135 193.464 89.3477 191.982 88.1016C190.521 86.8555 188.501 86.2324 185.923 86.2324C182.636 86.2324 180.133 87.4678 178.414 89.9385C176.696 92.4092 175.826 96.083 175.804 100.96V103.957C175.804 108.877 176.739 112.594 178.608 115.107C180.477 117.621 183.216 118.878 186.826 118.878C190.456 118.878 193.045 118.104 194.592 116.558V108.469H185.794V101.347H204.26V120.07ZM236.454 113.689C236.454 111.863 235.81 110.467 234.521 109.5C233.232 108.512 230.912 107.48 227.56 106.406C224.208 105.311 221.555 104.236 219.6 103.184C214.272 100.305 211.608 96.4268 211.608 91.5498C211.608 89.0146 212.317 86.7588 213.735 84.7822C215.174 82.7842 217.226 81.2266 219.89 80.1094C222.576 78.9922 225.583 78.4336 228.913 78.4336C232.265 78.4336 235.251 79.0459 237.872 80.2705C240.494 81.4736 242.524 83.1816 243.963 85.3945C245.424 87.6074 246.155 90.1211 246.155 92.9355H236.487C236.487 90.7871 235.81 89.1221 234.456 87.9404C233.103 86.7373 231.202 86.1357 228.752 86.1357C226.389 86.1357 224.552 86.6406 223.242 87.6504C221.931 88.6387 221.276 89.9492 221.276 91.582C221.276 93.1074 222.038 94.3857 223.564 95.417C225.111 96.4482 227.377 97.415 230.364 98.3174C235.864 99.9717 239.871 102.023 242.384 104.473C244.898 106.922 246.155 109.973 246.155 113.625C246.155 117.686 244.619 120.876 241.546 123.196C238.474 125.495 234.338 126.645 229.139 126.645C225.53 126.645 222.243 125.989 219.278 124.679C216.313 123.347 214.046 121.531 212.478 119.232C210.931 116.934 210.158 114.27 210.158 111.24H219.858C219.858 116.418 222.952 119.007 229.139 119.007C231.438 119.007 233.232 118.545 234.521 117.621C235.81 116.676 236.454 115.365 236.454 113.689ZM250.666 108.243C250.666 104.784 251.332 101.701 252.664 98.9941C253.996 96.2871 255.909 94.1924 258.401 92.71C260.914 91.2275 263.826 90.4863 267.134 90.4863C271.839 90.4863 275.674 91.9258 278.639 94.8047C281.625 97.6836 283.29 101.594 283.634 106.535L283.699 108.92C283.699 114.27 282.205 118.566 279.219 121.811C276.233 125.033 272.226 126.645 267.199 126.645C262.171 126.645 258.154 125.033 255.146 121.811C252.16 118.588 250.666 114.205 250.666 108.662V108.243ZM259.98 108.92C259.98 112.229 260.603 114.764 261.849 116.525C263.095 118.266 264.878 119.136 267.199 119.136C269.454 119.136 271.216 118.276 272.484 116.558C273.751 114.817 274.385 112.046 274.385 108.243C274.385 104.999 273.751 102.485 272.484 100.702C271.216 98.9189 269.433 98.0273 267.134 98.0273C264.857 98.0273 263.095 98.9189 261.849 100.702C260.603 102.464 259.98 105.203 259.98 108.92ZM326.882 110.37C326.517 115.419 324.648 119.394 321.275 122.294C317.923 125.194 313.497 126.645 307.997 126.645C301.982 126.645 297.245 124.625 293.786 120.586C290.348 116.525 288.629 110.961 288.629 103.893V101.024C288.629 96.5127 289.424 92.5381 291.014 89.1006C292.604 85.6631 294.871 83.0312 297.814 81.2051C300.779 79.3574 304.216 78.4336 308.126 78.4336C313.54 78.4336 317.902 79.8838 321.21 82.7842C324.519 85.6846 326.431 89.7559 326.947 94.998H317.279C317.042 91.9688 316.194 89.7773 314.733 88.4238C313.293 87.0488 311.091 86.3613 308.126 86.3613C304.904 86.3613 302.487 87.5215 300.875 89.8418C299.286 92.1406 298.469 95.7178 298.426 100.573V104.118C298.426 109.188 299.189 112.895 300.714 115.236C302.261 117.578 304.689 118.749 307.997 118.749C310.984 118.749 313.207 118.072 314.668 116.719C316.151 115.344 316.999 113.228 317.214 110.37H326.882Z" fill="#FCDAB7"/>
</svg>
