<svg width="491" height="187" viewBox="0 0 491 187" fill="none" xmlns="http://www.w3.org/2000/svg">
<path d="M143.547 149H120.109L74.4844 74.1562V149H51.0469V35.25H74.4844L120.188 110.25V35.25H143.547V149ZM186.438 64.4688V153.609C186.438 162.932 183.964 170.172 179.016 175.328C174.068 180.536 166.932 183.141 157.609 183.141C153.703 183.141 149.979 182.698 146.438 181.812V163.922C149.146 164.391 151.516 164.625 153.547 164.625C160.37 164.625 163.781 161.005 163.781 153.766V64.4688H186.438ZM161.984 42.5938C161.984 39.2083 163.104 36.4219 165.344 34.2344C167.635 32.0469 170.734 30.9531 174.641 30.9531C178.547 30.9531 181.62 32.0469 183.859 34.2344C186.151 36.4219 187.297 39.2083 187.297 42.5938C187.297 46.0312 186.125 48.8438 183.781 51.0312C181.49 53.2188 178.443 54.3125 174.641 54.3125C170.839 54.3125 167.766 53.2188 165.422 51.0312C163.13 48.8438 161.984 46.0312 161.984 42.5938ZM253.078 149C252.036 146.969 251.281 144.443 250.812 141.422C245.344 147.516 238.234 150.562 229.484 150.562C221.203 150.562 214.328 148.167 208.859 143.375C203.443 138.583 200.734 132.542 200.734 125.25C200.734 116.292 204.042 109.417 210.656 104.625C217.323 99.8333 226.932 97.4115 239.484 97.3594H249.875V92.5156C249.875 88.6094 248.859 85.4844 246.828 83.1406C244.849 80.7969 241.698 79.625 237.375 79.625C233.573 79.625 230.578 80.5365 228.391 82.3594C226.255 84.1823 225.188 86.6823 225.188 89.8594H202.609C202.609 84.9635 204.12 80.4323 207.141 76.2656C210.161 72.099 214.432 68.8438 219.953 66.5C225.474 64.1042 231.672 62.9062 238.547 62.9062C248.964 62.9062 257.219 65.5365 263.312 70.7969C269.458 76.0052 272.531 83.349 272.531 92.8281V129.469C272.583 137.49 273.703 143.557 275.891 147.672V149H253.078ZM234.406 133.297C237.74 133.297 240.812 132.568 243.625 131.109C246.438 129.599 248.521 127.594 249.875 125.094V110.562H241.438C230.135 110.562 224.12 114.469 223.391 122.281L223.312 123.609C223.312 126.422 224.302 128.74 226.281 130.562C228.26 132.385 230.969 133.297 234.406 133.297ZM325.031 132.359C329.198 132.359 332.583 131.214 335.188 128.922C337.792 126.63 339.146 123.583 339.25 119.781H360.422C360.37 125.51 358.807 130.771 355.734 135.562C352.661 140.302 348.443 144 343.078 146.656C337.766 149.26 331.88 150.562 325.422 150.562C313.339 150.562 303.807 146.734 296.828 139.078C289.849 131.37 286.359 120.745 286.359 107.203V105.719C286.359 92.6979 289.823 82.3073 296.75 74.5469C303.677 66.7865 313.182 62.9062 325.266 62.9062C335.839 62.9062 344.302 65.9271 350.656 71.9688C357.062 77.9583 360.318 85.9531 360.422 95.9531H339.25C339.146 91.5781 337.792 88.0365 335.188 85.3281C332.583 82.5677 329.146 81.1875 324.875 81.1875C319.615 81.1875 315.63 83.1146 312.922 86.9688C310.266 90.7708 308.938 96.9688 308.938 105.562V107.906C308.938 116.604 310.266 122.854 312.922 126.656C315.578 130.458 319.615 132.359 325.031 132.359ZM404.016 115.094L395.891 123.219V149H373.312V29H395.891V95.4844L400.266 89.8594L421.906 64.4688H449.016L418.469 99.7031L451.672 149H425.734L404.016 115.094Z" fill="#133B5C" fill-opacity="0.2"/>
<path d="M202.391 86.9092H188.018V126H178.35V86.9092H164.17V79.0781H202.391V86.9092ZM220.47 126.645C215.357 126.645 211.189 125.076 207.966 121.939C204.765 118.803 203.164 114.624 203.164 109.403V108.501C203.164 104.999 203.841 101.873 205.195 99.123C206.548 96.3516 208.46 94.2246 210.931 92.7422C213.423 91.2383 216.259 90.4863 219.439 90.4863C224.208 90.4863 227.957 91.9902 230.686 94.998C233.436 98.0059 234.811 102.271 234.811 107.792V111.595H212.607C212.908 113.872 213.81 115.698 215.314 117.073C216.839 118.448 218.762 119.136 221.082 119.136C224.67 119.136 227.474 117.836 229.494 115.236L234.07 120.36C232.673 122.337 230.783 123.884 228.398 125.001C226.013 126.097 223.371 126.645 220.47 126.645ZM219.407 98.0273C217.559 98.0273 216.055 98.6504 214.895 99.8965C213.756 101.143 213.026 102.926 212.704 105.246H225.659V104.505C225.616 102.442 225.057 100.853 223.983 99.7354C222.909 98.5967 221.383 98.0273 219.407 98.0273ZM260.334 126C259.905 125.162 259.593 124.12 259.4 122.874C257.144 125.388 254.211 126.645 250.602 126.645C247.186 126.645 244.35 125.656 242.094 123.68C239.86 121.703 238.743 119.211 238.743 116.203C238.743 112.508 240.107 109.672 242.835 107.695C245.585 105.719 249.549 104.72 254.727 104.698H259.013V102.7C259.013 101.089 258.594 99.7998 257.756 98.833C256.94 97.8662 255.64 97.3828 253.857 97.3828C252.288 97.3828 251.053 97.7588 250.151 98.5107C249.27 99.2627 248.829 100.294 248.829 101.604H239.516C239.516 99.585 240.139 97.7158 241.385 95.9971C242.631 94.2783 244.393 92.9355 246.67 91.9688C248.948 90.9805 251.504 90.4863 254.34 90.4863C258.637 90.4863 262.042 91.5713 264.556 93.7412C267.091 95.8896 268.359 98.9189 268.359 102.829V117.943C268.38 121.252 268.842 123.755 269.745 125.452V126H260.334ZM252.632 119.522C254.007 119.522 255.275 119.222 256.435 118.62C257.595 117.997 258.454 117.17 259.013 116.139V110.145H255.533C250.871 110.145 248.389 111.756 248.088 114.979L248.056 115.526C248.056 116.687 248.464 117.643 249.281 118.395C250.097 119.146 251.214 119.522 252.632 119.522ZM284.246 91.1309L284.537 95.0303C287.007 92.001 290.348 90.4863 294.559 90.4863C299.049 90.4863 302.132 92.2588 303.808 95.8037C306.257 92.2588 309.748 90.4863 314.282 90.4863C318.063 90.4863 320.877 91.5928 322.725 93.8057C324.573 95.9971 325.496 99.3057 325.496 103.731V126H316.151V103.764C316.151 101.787 315.764 100.348 314.991 99.4453C314.217 98.5215 312.853 98.0596 310.898 98.0596C308.105 98.0596 306.171 99.3916 305.097 102.056L305.129 126H295.816V103.796C295.816 101.776 295.418 100.315 294.623 99.4131C293.829 98.5107 292.475 98.0596 290.563 98.0596C287.92 98.0596 286.008 99.1553 284.827 101.347V126H275.513V91.1309H284.246Z" fill="#FCDAB7"/>
</svg>
