<svg width="362" height="139" viewBox="0 0 362 139" fill="none" xmlns="http://www.w3.org/2000/svg">
<path d="M84.2422 108H63.1484L22.0859 40.6406V108H0.992203V5.625H22.0859L63.2188 73.125V5.625H84.2422V108ZM122.844 31.9219V112.148C122.844 120.539 120.617 127.055 116.164 131.695C111.711 136.383 105.289 138.727 96.898 138.727C93.383 138.727 90.031 138.328 86.8438 137.531V121.43C89.281 121.852 91.414 122.062 93.242 122.062C99.383 122.062 102.453 118.805 102.453 112.289V31.9219H122.844ZM100.836 12.2344C100.836 9.1875 101.844 6.6797 103.859 4.7109C105.922 2.7422 108.711 1.7578 112.227 1.7578C115.742 1.7578 118.508 2.7422 120.523 4.7109C122.586 6.6797 123.617 9.1875 123.617 12.2344C123.617 15.3281 122.562 17.8594 120.453 19.8281C118.391 21.7969 115.648 22.7812 112.227 22.7812C108.805 22.7812 106.039 21.7969 103.93 19.8281C101.867 17.8594 100.836 15.3281 100.836 12.2344ZM182.82 108C181.883 106.172 181.203 103.898 180.781 101.18C175.859 106.664 169.461 109.406 161.586 109.406C154.133 109.406 147.945 107.25 143.023 102.938C138.148 98.625 135.711 93.188 135.711 86.625C135.711 78.562 138.688 72.375 144.641 68.0625C150.641 63.75 159.289 61.5703 170.586 61.5234H179.938V57.1641C179.938 53.6484 179.023 50.8359 177.195 48.7266C175.414 46.6172 172.578 45.5625 168.688 45.5625C165.266 45.5625 162.57 46.3828 160.602 48.0234C158.68 49.6641 157.719 51.9141 157.719 54.7734H137.398C137.398 50.3672 138.758 46.2891 141.477 42.5391C144.195 38.7891 148.039 35.8594 153.008 33.75C157.977 31.5937 163.555 30.5156 169.742 30.5156C179.117 30.5156 186.547 32.8828 192.031 37.6172C197.562 42.3047 200.328 48.9141 200.328 57.4453V90.422C200.375 97.641 201.383 103.102 203.352 106.805V108H182.82ZM166.016 93.867C169.016 93.867 171.781 93.211 174.312 91.898C176.844 90.539 178.719 88.734 179.938 86.484V73.4062H172.344C162.172 73.4062 156.758 76.922 156.102 83.953L156.031 85.148C156.031 87.68 156.922 89.766 158.703 91.406C160.484 93.047 162.922 93.867 166.016 93.867ZM247.578 93.023C251.328 93.023 254.375 91.992 256.719 89.93C259.062 87.867 260.281 85.125 260.375 81.703H279.43C279.383 86.859 277.977 91.594 275.211 95.906C272.445 100.172 268.648 103.5 263.82 105.891C259.039 108.234 253.742 109.406 247.93 109.406C237.055 109.406 228.477 105.961 222.195 99.07C215.914 92.133 212.773 82.57 212.773 70.3828V69.0469C212.773 57.3281 215.891 47.9766 222.125 40.9922C228.359 34.0078 236.914 30.5156 247.789 30.5156C257.305 30.5156 264.922 33.2344 270.641 38.6719C276.406 44.0625 279.336 51.2578 279.43 60.2578H260.375C260.281 56.3203 259.062 53.1328 256.719 50.6953C254.375 48.2109 251.281 46.9688 247.438 46.9688C242.703 46.9688 239.117 48.7031 236.68 52.1719C234.289 55.5938 233.094 61.1719 233.094 68.9062V71.0156C233.094 78.844 234.289 84.469 236.68 87.891C239.07 91.312 242.703 93.023 247.578 93.023ZM318.664 77.484L311.352 84.797V108H291.031V0H311.352V59.8359L315.289 54.7734L334.766 31.9219H359.164L331.672 63.6328L361.555 108H338.211L318.664 77.484Z" fill="#BABABA" fill-opacity="0.4"/>
<path d="M131.219 57.0938H117.281V95H107.906V57.0938H94.1562V49.5H131.219V57.0938ZM148.75 95.625C143.792 95.625 139.75 94.1042 136.625 91.0625C133.521 88.0208 131.969 83.9688 131.969 78.9062V78.0312C131.969 74.6354 132.625 71.6042 133.938 68.9375C135.25 66.25 137.104 64.1875 139.5 62.75C141.917 61.2917 144.667 60.5625 147.75 60.5625C152.375 60.5625 156.01 62.0208 158.656 64.9375C161.323 67.8542 162.656 71.9896 162.656 77.3438V81.0312H141.125C141.417 83.2396 142.292 85.0104 143.75 86.3438C145.229 87.6771 147.094 88.3438 149.344 88.3438C152.823 88.3438 155.542 87.0833 157.5 84.5625L161.938 89.5312C160.583 91.4479 158.75 92.9479 156.438 94.0312C154.125 95.0938 151.562 95.625 148.75 95.625ZM147.719 67.875C145.927 67.875 144.469 68.4792 143.344 69.6875C142.24 70.8958 141.531 72.625 141.219 74.875H153.781V74.1562C153.74 72.1562 153.198 70.6146 152.156 69.5312C151.115 68.4271 149.635 67.875 147.719 67.875ZM187.406 95C186.99 94.1875 186.688 93.1771 186.5 91.9688C184.312 94.4062 181.469 95.625 177.969 95.625C174.656 95.625 171.906 94.6667 169.719 92.75C167.552 90.8333 166.469 88.4167 166.469 85.5C166.469 81.9167 167.792 79.1667 170.438 77.25C173.104 75.3333 176.948 74.3646 181.969 74.3438H186.125V72.4062C186.125 70.8438 185.719 69.5938 184.906 68.6562C184.115 67.7188 182.854 67.25 181.125 67.25C179.604 67.25 178.406 67.6146 177.531 68.3438C176.677 69.0729 176.25 70.0729 176.25 71.3438H167.219C167.219 69.3854 167.823 67.5729 169.031 65.9062C170.24 64.2396 171.948 62.9375 174.156 62C176.365 61.0417 178.844 60.5625 181.594 60.5625C185.76 60.5625 189.062 61.6146 191.5 63.7188C193.958 65.8021 195.188 68.7396 195.188 72.5312V87.1875C195.208 90.3958 195.656 92.8229 196.531 94.4688V95H187.406ZM179.938 88.7188C181.271 88.7188 182.5 88.4271 183.625 87.8438C184.75 87.2396 185.583 86.4375 186.125 85.4375V79.625H182.75C178.229 79.625 175.823 81.1875 175.531 84.3125L175.5 84.8438C175.5 85.9688 175.896 86.8958 176.688 87.625C177.479 88.3542 178.562 88.7188 179.938 88.7188ZM210.594 61.1875L210.875 64.9688C213.271 62.0312 216.51 60.5625 220.594 60.5625C224.948 60.5625 227.938 62.2812 229.562 65.7188C231.938 62.2812 235.323 60.5625 239.719 60.5625C243.385 60.5625 246.115 61.6354 247.906 63.7812C249.698 65.9062 250.594 69.1146 250.594 73.4062V95H241.531V73.4375C241.531 71.5208 241.156 70.125 240.406 69.25C239.656 68.3542 238.333 67.9062 236.438 67.9062C233.729 67.9062 231.854 69.1979 230.812 71.7812L230.844 95H221.812V73.4688C221.812 71.5104 221.427 70.0938 220.656 69.2188C219.885 68.3438 218.573 67.9062 216.719 67.9062C214.156 67.9062 212.302 68.9688 211.156 71.0938V95H202.125V61.1875H210.594Z" fill="black"/>
</svg>
